<svg xmlns="http://www.w3.org/2000/svg" xmlns:xlink="http://www.w3.org/1999/xlink" version="1.1" id="Layer_1" x="0px" y="0px" enable-background="new 0 0 1024 1024" xml:space="preserve" viewBox="127.29 355.13 778.46 263.42">
<path fill="#000000" opacity="1.000000" stroke="none" d=" M613.475037,430.848083   C602.333984,430.390808 594.546082,435.147125 587.746094,443.289703   C576.720581,456.492157 561.668274,464.305206 546.380798,471.424194   C513.779785,486.605621 479.647736,496.940918 444.310455,503.568359   C437.139709,504.913239 429.900726,505.952637 422.781189,507.582031   C420.752747,508.046265 418.495728,508.526611 417.419495,506.379028   C416.154968,503.855743 418.365051,502.357178 420.103790,501.167847   C422.150665,499.767822 424.387482,498.604919 426.643250,497.557251   C445.052643,489.007080 460.652374,476.691498 474.215942,461.756165   C477.351318,458.303680 481.743195,454.462616 479.164612,449.125549   C476.721588,444.069031 471.198273,444.279388 466.377472,444.242798   C454.890442,444.155518 443.393066,443.999847 431.916718,444.379852   C422.514740,444.691162 414.817932,440.576019 407.241119,436.021851   C372.841492,415.345428 337.605011,396.067871 303.834442,374.346802   C295.768860,369.159027 287.591400,364.036407 280.388428,357.747070   C281.471985,354.713226 283.587250,355.012634 285.523071,355.313965   C301.539703,357.806946 317.016724,362.071930 331.656555,369.199371   C341.833588,374.154114 352.660889,377.546661 363.079590,381.915802   C375.404938,387.084534 388.329834,390.263031 401.130493,393.823639   C414.900757,397.653931 428.806946,400.996613 442.658447,404.533875   C453.909119,407.406921 465.098755,410.565674 476.439087,413.028351   C489.255188,415.811523 501.733978,420.054749 514.763428,421.862396   C521.635803,422.815857 528.469116,421.728546 535.092651,420.253113   C546.150330,417.789948 557.167664,415.348358 568.526917,414.808411   C571.746887,414.655334 574.855957,413.496643 577.504639,411.922882   C582.537476,408.932495 587.320190,409.371948 592.251099,411.695221   C594.954773,412.969025 597.839844,414.045990 600.213074,415.795135   C605.798706,419.911957 611.812927,422.174652 618.816406,421.761688   C620.956970,421.635406 623.562744,421.631287 624.231201,424.256775   C625.018738,427.350067 622.113892,428.111633 620.126160,429.022125   C618.189026,429.909424 615.988464,430.221680 613.475037,430.848083  z"/>
<path fill="#000000" opacity="1.000000" stroke="none" d=" M802.514160,517.386841   C816.808289,526.011414 830.319214,535.108215 842.963562,545.483521   C865.085266,563.635620 885.058716,583.779053 901.099487,607.601929   C902.576721,609.795776 903.643494,612.268127 904.873413,614.625488   C905.475525,615.779358 906.483826,617.069092 904.935425,618.140198   C903.613525,619.054688 902.376099,618.314453 901.367920,617.337402   C897.429749,613.520447 893.598389,609.611206 889.522705,605.916016   C871.130859,589.240967 850.308899,576.128052 828.709229,564.207642   C809.017883,553.340332 788.560608,543.966980 767.680054,535.656555   C725.880432,519.020386 683.055054,505.748138 638.869019,496.877106   C613.695312,491.823120 588.374634,488.468262 562.754272,487.197052   C559.587036,487.039886 556.948792,485.996185 559.097107,482.376404   C565.780579,471.114990 573.807800,461.054230 585.158813,453.956787   C590.326416,450.725677 595.710388,451.101135 601.081726,452.099152   C642.609619,459.815491 683.919617,468.321014 724.012451,482.091156   C751.194153,491.426880 777.374146,502.741608 802.514160,517.386841  z"/>
<path fill="#000000" opacity="1.000000" stroke="none" d=" M391.598999,456.460693   C410.478943,452.810944 429.046692,450.068939 447.833405,448.871857   C453.466003,448.512970 459.049683,447.406342 464.681702,447.013672   C470.915375,446.579041 472.309570,448.865692 470.150757,454.874512   C467.343353,462.688751 461.994720,468.585968 455.810547,473.733124   C449.551025,478.942932 443.069336,483.903076 436.490295,488.705872   C431.890106,492.064087 426.288452,493.009155 420.805756,492.965210   C402.457794,492.818085 384.895081,497.460510 367.204529,501.291443   C337.746155,507.670715 308.905670,516.325378 280.395935,526.003174   C244.603043,538.153198 209.474594,551.968201 176.290970,570.296326   C160.638733,578.941467 146.024200,589.019165 133.193848,601.564331   C131.716873,603.008423 130.380859,604.976440 127.725822,604.300842   C126.631668,602.417175 127.846550,601.040283 128.824356,599.814514   C145.871414,578.443726 163.314911,557.409241 185.818985,541.410583   C205.363159,527.516174 225.942062,515.342773 247.333374,504.424377   C268.879730,493.426941 291.135742,484.213654 313.985199,476.510040   C339.206085,468.006866 364.879181,460.997925 391.598999,456.460693  z"/>
<path fill="#000000" opacity="1.000000" stroke="none" d=" M766.728088,599.712769   C764.496521,603.728638 761.115601,605.577637 757.378784,607.296814   C743.201050,613.819763 728.303223,615.224304 712.986938,614.148254   C708.753296,613.850769 708.751709,613.873352 705.833801,608.639099   C705.512451,608.583191 705.066162,608.369324 704.885925,608.506104   C697.342468,614.229248 688.619812,614.533386 679.684631,614.216858   C672.698425,613.969360 665.700256,614.070007 658.707886,613.978943   C657.068542,613.957581 655.177002,614.157532 654.452393,612.181641   C653.848877,610.535522 655.117859,609.374023 655.999390,608.192566   C662.369446,599.655518 668.307190,590.820984 674.321350,582.033936   C676.579468,578.734619 676.513428,576.334717 674.529541,573.072021   C670.788818,566.920288 671.505676,565.929871 678.857117,565.936035   C684.352783,565.940613 689.849060,565.905579 695.343811,565.980957   C697.598572,566.011963 700.402832,565.249207 701.652527,567.791260   C702.855896,570.239197 700.760498,572.229004 699.504700,574.072937   C694.823730,580.945862 689.964172,587.696777 685.200134,594.513489   C684.281555,595.827759 682.873474,596.968201 683.421021,599.570129   C691.672424,598.658936 700.535645,601.778076 706.687439,592.060181   C711.366760,584.668335 716.337280,577.281067 722.420715,570.824829   C726.561401,566.430298 737.290283,564.165039 742.734253,566.571106   C746.065674,568.043457 745.059021,570.100586 743.425964,572.117676   C737.355408,579.615784 731.240540,587.077942 725.138245,594.550354   C723.888550,596.080627 722.484985,597.514648 721.963989,599.504944   C728.803772,602.556763 736.587280,600.765137 741.652466,594.596008   C748.306274,586.492004 754.786255,578.254028 761.790771,570.434448   C764.700073,567.186584 767.847168,565.575989 772.237976,565.857788   C776.383301,566.123962 780.560730,565.875488 784.724060,565.880066   C786.380493,565.881897 788.274963,565.664062 789.124939,567.481262   C789.936707,569.216858 788.824158,570.639526 787.788452,571.998779   C780.829224,581.131836 773.890503,590.280457 766.728088,599.712769  z"/>
<path fill="#000000" opacity="1.000000" stroke="none" d=" M648.893066,604.904663   C644.224670,611.296631 637.271484,612.420166 630.672302,613.652893   C617.639160,616.087463 604.466553,614.671448 591.360107,613.988953   C586.843018,613.753662 582.889709,605.900574 585.472717,601.314270   C591.414185,590.764709 597.294861,580.069641 605.360352,570.939880   C610.149170,565.519165 617.366699,566.390076 623.643494,566.082458   C634.763367,565.537537 645.933777,565.944519 657.081543,566.076660   C663.531006,566.153015 669.004761,575.936890 665.503845,581.420837   C660.408813,589.401978 655.231995,597.351440 648.893066,604.904663  M630.556152,579.354065   C622.524170,578.094666 616.665771,580.929321 613.055054,588.373718   C612.199951,590.136780 610.596130,591.520569 609.540405,593.206360   C608.017517,595.638184 605.866638,597.813110 605.568970,601.520020   C613.009705,601.520020 620.100525,601.591675 627.187805,601.467285   C628.864746,601.437866 630.323853,600.327271 631.463989,599.075928   C635.756287,594.365112 638.662415,588.718323 641.871460,583.292297   C643.266052,580.934204 642.253418,579.450623 639.502197,579.383911   C636.840637,579.319336 634.176392,579.364258 630.556152,579.354065  z"/>
<path fill="#000000" opacity="1.000000" stroke="none" d=" M470.092804,565.852417   C484.724396,565.905823 498.870178,565.878357 513.013245,566.061890   C516.469116,566.106689 520.713501,564.642334 522.870972,568.839844   C525.006775,572.995117 522.902649,581.322021 519.321716,584.546509   C516.211914,587.346802 512.332153,588.261719 508.403229,589.066284   C506.496552,589.456604 504.385742,589.344299 502.847595,591.512329   C509.439697,597.039856 505.960968,603.697754 504.755188,610.133240   C504.478821,611.608154 504.012970,613.338379 502.334015,613.626038   C497.239807,614.498840 492.056702,614.599426 486.999176,613.619263   C484.604462,613.155090 485.292084,610.803406 485.659271,608.991516   C486.469177,604.995361 488.299469,601.198669 488.409760,596.766357   C483.094513,595.922241 478.192657,596.299011 473.296692,597.152466   C472.061890,597.367676 471.225067,598.131775 470.553131,599.138367   C469.260376,601.074951 467.494781,602.836243 466.729126,604.960022   C463.328522,614.392212 455.942719,614.933472 447.694183,614.034180   C444.473572,613.683105 443.408478,612.089233 444.936401,609.364990   C449.082794,601.971924 453.412628,594.680969 457.725128,587.382202   C459.073151,585.100769 461.296204,584.716675 463.783417,584.756714   C471.436768,584.879944 479.092041,584.885071 486.746674,584.920593   C488.243591,584.927551 489.740784,584.857788 491.238007,584.835938   C494.583618,584.787109 495.557404,582.310486 495.556915,579.785217   C495.556244,576.254089 492.531586,577.284607 490.666229,577.553162   C484.030029,578.508484 477.376984,578.199280 470.734680,578.092896   C467.199005,578.036316 463.718597,577.262878 461.596130,573.915405   C460.375946,571.991028 460.052795,569.798645 460.867493,567.706543   C461.695709,565.579773 463.787964,565.880981 465.612305,565.872253   C466.943542,565.865845 468.274780,565.856934 470.092804,565.852417  z"/>
<path fill="#000000" opacity="1.000000" stroke="none" d=" M540.121704,577.289307   C534.804077,577.879761 531.101624,576.826050 530.025879,571.250549   C529.334473,567.667297 530.254700,565.817566 534.196289,565.854980   C544.860352,565.956299 555.525574,565.930969 566.190247,565.976440   C573.189026,566.006287 580.188660,566.160034 587.186157,566.088989   C591.561890,566.044556 593.082520,568.354980 593.086731,572.329590   C593.096802,581.876526 590.358032,585.430542 581.206482,588.224548   C578.573059,589.028503 575.492371,588.634399 573.051697,591.116455   C577.913818,597.219482 576.705261,603.739868 574.163879,610.361633   C573.300781,612.610474 572.023132,614.074768 569.463501,614.072937   C565.797791,614.070374 562.131897,614.117432 558.466431,614.095337   C555.336670,614.076355 554.334229,612.460449 555.130981,609.524109   C555.915894,606.631226 556.621033,603.716309 557.430603,600.830566   C558.290039,597.767212 557.013977,596.770020 554.018311,596.324341   C545.414062,595.044250 539.463501,597.815430 535.451294,605.912109   C531.352478,614.183533 525.886475,616.109924 516.811951,614.003357   C514.663879,613.504639 513.358765,612.413635 514.301819,610.145569   C517.833374,601.651917 523.688049,594.481628 528.020020,586.430542   C529.044067,584.527405 531.516357,584.862976 533.533569,584.863098   C542.031128,584.863525 550.528748,584.846252 559.026184,584.799072   C560.677063,584.789917 562.462219,584.934082 563.682373,583.504578   C564.762512,582.239258 565.900269,580.810059 565.374756,579.030518   C564.835510,577.204346 563.071350,577.357849 561.598206,577.348022   C554.599548,577.301208 547.600464,577.305237 540.121704,577.289307  z"/>
<path fill="#000000" opacity="1.000000" stroke="none" d=" M396.204620,570.485962   C395.513550,566.864685 397.348450,565.916077 400.103577,565.919617   C415.263306,565.939087 430.424500,565.863403 445.582062,566.060303   C451.489655,566.137024 454.704590,572.085754 451.885376,577.652100   C449.633240,582.098938 446.886292,586.297485 444.313995,590.579285   C440.632141,596.708069 436.879547,602.794495 433.215302,608.933716   C431.048462,612.564148 427.971863,614.213928 423.709503,614.177490   C408.385437,614.046692 393.059662,614.112061 377.735718,613.975037   C372.070190,613.924438 371.666962,612.895325 373.879059,607.784424   C380.919983,591.516907 393.144196,583.753296 410.895844,584.688171   C414.385010,584.871948 417.891388,584.739685 421.389832,584.735229   C428.840210,584.725769 429.798492,584.013428 432.387573,576.576782   C431.155304,574.587280 429.134521,575.354187 427.431671,575.329590   C419.603088,575.216492 411.772736,575.235413 403.943329,575.167786   C400.642975,575.139343 397.545929,574.655457 396.204620,570.485962  M421.684906,596.520020   C423.242157,594.377930 423.170990,592.798462 420.105713,592.652527   C416.304749,592.471497 412.483246,592.251648 408.691589,592.449829   C401.733917,592.813477 398.778351,595.704712 397.374725,603.156128   C401.260986,604.183838 405.269440,603.251648 409.138977,603.779175   C414.995300,604.577637 419.109711,602.682129 421.684906,596.520020  z"/>
<path fill="#000000" opacity="1.000000" stroke="none" d=" M261.608398,570.426514   C266.843353,567.024292 272.443695,566.071350 278.109894,565.965332   C289.422150,565.753540 300.741211,565.868286 312.057129,565.917603   C313.994751,565.926025 316.363434,565.503357 317.454559,567.624512   C318.533478,569.721802 316.750885,571.349182 315.798553,573.054504   C313.421387,577.311340 309.241455,577.930847 305.044922,578.084351   C299.561188,578.284973 294.063019,578.056335 288.572510,578.125671   C286.829285,578.147766 284.945526,577.627258 283.041840,579.053406   C287.705872,584.835938 293.432983,589.346558 298.754395,594.254395   C304.325348,599.392456 303.955261,600.013855 299.092285,605.786621   C293.443665,612.492188 287.010040,614.942261 278.227875,614.353577   C265.797882,613.520447 253.278305,614.027405 240.797089,613.950684   C238.829468,613.938538 236.490875,614.462280 235.309448,612.467285   C234.154724,610.517517 236.201675,609.155640 237.035767,607.620361   C237.829147,606.160034 238.897079,604.829102 239.544296,603.313171   C241.067657,599.745300 243.686340,598.577881 247.471664,598.648132   C256.954193,598.823975 266.442322,598.738586 275.927704,598.682007   C277.508270,598.672607 279.252960,599.230347 280.899963,597.729309   C278.194153,593.329468 273.322479,591.469666 269.755951,588.154663   C267.333527,585.903137 264.514923,584.059814 261.785675,582.160156   C254.643768,577.189026 254.569275,575.911499 261.608398,570.426514  z"/>
<path fill="#000000" opacity="1.000000" stroke="none" d=" M325.932495,573.045471   C328.967499,567.186035 333.408173,565.468384 339.638550,565.702637   C352.286865,566.178101 364.965637,565.788696 377.629669,565.939209   C381.014587,565.979370 384.747589,565.612671 386.814117,569.529602   C389.030457,573.730591 387.162689,576.903992 385.072449,580.574524   C378.456329,592.192688 368.282013,596.554688 355.481445,596.308228   C350.983765,596.221558 346.465210,596.574829 341.988007,596.265991   C338.095306,595.997498 335.625397,597.521667 333.985657,600.846863   C333.912750,600.994751 333.754791,601.110352 333.712189,601.262329   C329.868011,614.963135 319.301147,615.133667 308.081604,614.016418   C303.808350,613.590881 302.939514,612.177856 305.263153,608.623352   C309.546661,602.070801 314.059753,595.668518 318.458130,589.190674   C320.138000,586.716675 322.538940,586.043823 325.384796,586.036072   C335.383423,586.008972 345.386230,585.675354 355.378448,585.885254   C360.389923,585.990540 363.059998,583.840271 364.429993,579.345642   C362.756287,577.413635 360.614563,578.161438 358.729858,578.112122   C348.743805,577.850464 338.748444,578.425720 328.761414,577.623535   C325.670593,577.375244 324.237457,576.564697 325.932495,573.045471  z"/>
<path fill="#000000" opacity="1.000000" stroke="none" d=" M329.890808,406.347229   C323.091309,406.263977 316.769836,406.616180 310.465576,405.721741   C298.336578,404.000946 289.910370,395.953033 281.214783,388.512665   C279.192261,386.782043 274.645874,385.614746 276.175598,382.109924   C277.564301,378.928314 281.788330,380.033478 284.851990,379.913239   C298.911102,379.361450 312.434967,381.067474 324.361847,389.479797   C328.469513,392.377014 332.145660,395.730286 335.571564,399.361176   C336.900208,400.769318 338.694061,402.413147 337.729309,404.577789   C336.730896,406.817932 334.299561,406.113861 332.370270,406.275208   C331.707245,406.330627 331.038574,406.318695 329.890808,406.347229  z"/>
<path fill="#000000" opacity="1.000000" stroke="none" d=" M379.314758,425.609680   C390.646881,431.220276 394.177490,433.790192 396.169281,437.946289   C395.512756,438.341980 394.871643,439.019257 394.149963,439.120178   C381.055603,440.951324 368.087524,442.195557 356.113556,434.358215   C350.983582,431.000397 345.564026,428.082367 340.784576,424.196747   C339.773712,423.375000 338.482483,422.537598 338.913025,420.972534   C339.398071,419.209229 341.023438,418.905182 342.521973,418.956055   C354.977875,419.378571 367.399414,420.051086 379.314758,425.609680  z"/>
<path fill="#000000" opacity="1.000000" stroke="none" d=" M260.622742,370.455719   C252.120834,370.635986 244.594604,369.008179 238.164185,363.905823   C236.677536,362.726227 234.499176,361.404053 235.160126,359.143311   C235.939056,356.479065 238.626190,356.924622 240.693893,356.999512   C248.043579,357.265686 255.278778,355.961975 262.578644,355.594788   C269.241577,355.259613 278.110199,360.442261 280.997589,366.347595   C282.867981,370.172974 280.076385,370.799164 277.516968,370.938202   C272.041870,371.235718 266.540466,371.381989 260.622742,370.455719  z"/>
</svg>