<?xml version="1.0" encoding="UTF-8"?>
<svg width="24px" height="24px" viewBox="0 0 24 24" version="1.1" xmlns="http://www.w3.org/2000/svg">
    <g stroke="none" stroke-width="1" fill="none" fill-rule="evenodd">
        <path d="M12,2.5 C15.0375661,2.5 17.5,4.96243388 17.5,8 L17.5,10.5 C17.5,11.8349028 17.8799438,13.1427614 18.5964392,14.2661397 L19.7803301,16.0320966 C19.9139961,16.2326856 20,16.4672188 20,16.7081951 C20,17.1823108 19.6268542,17.5641991 19.1694118,17.5914109 L19.0625,17.5962912 L19.0625,17.5962912 L4.9375,17.5962912 C4.66652271,17.5962912 4.43198955,17.5102873 4.23140047,17.3766213 C3.82334957,17.0973368 3.69293671,16.5506229 3.93853541,16.1121328 L3.99577736,16.0320966 L3.99577736,16.0320966 L5.1796608,14.2661397 C5.89615623,13.1427614 6.27609997,11.8349028 6.27609997,10.5 L6.27609997,8 C6.27609997,4.96243388 8.73853385,2.5 11.776,2.5 Z M10,18.5 C10,19.6045695 10.8954305,20.5 12,20.5 C13.1045695,20.5 14,19.6045695 14,18.5 L10,18.5 Z" fill="currentColor" fill-rule="nonzero"></path>
    </g>
</svg>